<svg width="31" height="20" viewBox="0 0 31 20" fill="none" xmlns="http://www.w3.org/2000/svg">
<path d="M27.9401 13.5953C26.8474 14.7882 25.5059 15.526 23.8828 15.5885C20.8179 15.7063 18.4454 13.9061 18.1516 11.6538C17.5669 7.17027 20.4861 4.41119 23.6832 4.41119C25.31 4.41119 26.521 5.03278 27.5961 6.02935L30.401 2.87049C28.8789 1.36612 26.538 0 23.6832 0C20.9193 0 18.4319 0.914031 16.5458 2.62151V0.407595H2.64574V4.68734H11.4398V11.4952C11.4398 14.5861 10.2628 15.5885 7.97196 15.5885C6.48408 15.5885 4.96162 14.7186 3.67337 13.1089L0.745728 16.2749C2.70878 19.0211 5.64354 20 8.14108 20C12.0065 20 14.3095 18.5884 15.5009 16.4611C17.4398 18.801 20.2821 20 23.3572 20C26.3882 20 28.9081 18.8625 30.7457 16.6852L27.9401 13.5953Z" fill="white"/>
</svg>
