<svg width="28" height="25" viewBox="0 0 28 25" fill="none" xmlns="http://www.w3.org/2000/svg">
<path d="M6.65475 0.827135C3.92593 1.99772 0.612375 5.96471 0.157573 8.63104C-1.14186 15.2644 5.74514 22.1578 15.296 23.9787C19.909 24.8241 22.9627 24.1738 25.5615 21.7026C27.4457 19.8817 27.7706 19.1663 27.7706 16.565C27.7706 10.8421 23.8073 6.48496 18.0898 5.89967C11.5926 5.31438 8.86379 8.82614 11.5926 14.4189C13.9966 19.3614 16.7903 19.2313 15.4259 14.2889C15.0361 12.7931 14.9062 11.2974 15.1011 10.9722C16.2706 9.08627 22.118 11.6876 23.2225 14.614C24.1322 16.8902 24.0672 17.2804 22.5728 18.7761C18.7395 22.613 5.87509 17.8006 4.12085 11.8176C3.47113 9.73659 5.29034 5.9647 7.75927 4.46896C9.5135 3.3634 10.8779 3.16831 15.6208 3.23334C18.7395 3.29837 21.4683 3.16831 21.6632 2.97321C23.9372 0.697071 11.0728 -1.12384 6.65475 0.827135Z" fill="black"/>
</svg>
