<svg width="128" height="129" viewBox="0 0 128 129" fill="none" xmlns="http://www.w3.org/2000/svg">
<path d="M84.8534 66.0542H109.867C109.44 90.9609 104.533 95.0676 89.2267 104.134C87.4667 105.201 86.88 107.441 87.9467 109.254C89.0134 111.014 91.2534 111.601 93.0667 110.534C111.093 99.8676 117.387 93.3609 117.387 62.3209V33.5742C117.387 24.4542 109.973 17.0942 100.907 17.0942H84.9067C75.52 17.0942 68.4267 24.1876 68.4267 33.5742V49.5742C68.3734 58.9609 75.4667 66.0542 84.8534 66.0542Z" fill="#667085" fill-opacity="0.3"/>
<path d="M27.1466 66.0542H52.16C51.7333 90.9609 46.8266 95.0676 31.52 104.134C29.76 105.201 29.1733 107.441 30.24 109.254C31.3066 111.014 33.5466 111.601 35.36 110.534C53.3866 99.8676 59.68 93.3609 59.68 62.3209V33.5742C59.68 24.4542 52.2666 17.0942 43.2 17.0942H27.2C17.76 17.0942 10.6666 24.1876 10.6666 33.5742V49.5742C10.6666 58.9609 17.76 66.0542 27.1466 66.0542Z" fill="#667085" fill-opacity="0.3"/>
</svg>
